# xmcd
# 
# Track frame offsets:
#     150
#     19927
#     42263
#     63574
#     85758
#     113059
#     141735
#     167552
#     183880
# 
# Disc length: 2808
# 
# Revision: 2
# Processed by: cddbd v1.5.2PL0 Copyright (c) Steve Scherf et al.
# Submitted via: fre:ac v1.0.17
# 
DISCID=770af609
DTITLE=Justin Johnson - Drivin' It Down Disc 1
DYEAR=2017
DGENRE=Road Trippin
TTITLE0=Baby, Please Don't Go
TTITLE1=Graveyard Blues
TTITLE2=I Put A Spell On You
TTITLE3=Loose Change
TTITLE4=Misterioso #2
TTITLE5=Mystery Train
TTITLE6=Boom Boom
TTITLE7=Funky Bootz
TTITLE8=Grinnin' In Your Face
EXTD=Recorded at Cash Cabin Studio, Hendersonville, TN
EXTT0=
EXTT1=
EXTT2=
EXTT3=
EXTT4=
EXTT5=
EXTT6=
EXTT7=
EXTT8=
PLAYORDER=
